<mxfile host="www.draw.io" modified="2020-01-07T02:45:58.003Z" agent="Mozilla/5.0 (X11; Linux x86_64) AppleWebKit/537.36 (KHTML, like Gecko) Chrome/78.0.3904.108 Safari/537.36" etag="QgTfUxOjtziojvM3-OIx" version="12.4.9" type="github">
  <diagram id="0N1bxl64S3HjaluRlnwy" name="Page-1">
    <mxGraphModel dx="980" dy="1603" grid="1" gridSize="10" guides="1" tooltips="1" connect="1" arrows="1" fold="1" page="1" pageScale="1" pageWidth="850" pageHeight="1100" math="0" shadow="0">
      <root>
        <mxCell id="0"/>
        <mxCell id="1" parent="0"/>
        <mxCell id="MYA3_TibbV88ldz-a4rb-6" style="edgeStyle=orthogonalEdgeStyle;rounded=0;orthogonalLoop=1;jettySize=auto;html=1;exitX=1;exitY=0.5;exitDx=0;exitDy=0;entryX=0;entryY=0.5;entryDx=0;entryDy=0;" parent="1" source="MYA3_TibbV88ldz-a4rb-59" target="MYA3_TibbV88ldz-a4rb-4" edge="1">
          <mxGeometry relative="1" as="geometry">
            <mxPoint x="280" y="215" as="sourcePoint"/>
          </mxGeometry>
        </mxCell>
        <mxCell id="MYA3_TibbV88ldz-a4rb-20" style="edgeStyle=orthogonalEdgeStyle;rounded=0;orthogonalLoop=1;jettySize=auto;html=1;exitX=0;exitY=0.5;exitDx=0;exitDy=0;entryX=0.5;entryY=1;entryDx=0;entryDy=0;" parent="1" target="MYA3_TibbV88ldz-a4rb-19" edge="1">
          <mxGeometry relative="1" as="geometry">
            <mxPoint x="220" y="215" as="sourcePoint"/>
          </mxGeometry>
        </mxCell>
        <mxCell id="MYA3_TibbV88ldz-a4rb-24" style="edgeStyle=orthogonalEdgeStyle;rounded=0;orthogonalLoop=1;jettySize=auto;html=1;exitX=0;exitY=0.5;exitDx=0;exitDy=0;entryX=0.5;entryY=0;entryDx=0;entryDy=0;" parent="1" target="MYA3_TibbV88ldz-a4rb-23" edge="1">
          <mxGeometry relative="1" as="geometry">
            <mxPoint x="220" y="215" as="sourcePoint"/>
          </mxGeometry>
        </mxCell>
        <mxCell id="MYA3_TibbV88ldz-a4rb-32" style="edgeStyle=orthogonalEdgeStyle;rounded=0;orthogonalLoop=1;jettySize=auto;html=1;exitX=0;exitY=0.5;exitDx=0;exitDy=0;entryX=1;entryY=0.5;entryDx=0;entryDy=0;" parent="1" target="MYA3_TibbV88ldz-a4rb-30" edge="1">
          <mxGeometry relative="1" as="geometry">
            <mxPoint x="220" y="215" as="sourcePoint"/>
          </mxGeometry>
        </mxCell>
        <mxCell id="MYA3_TibbV88ldz-a4rb-3" value="图书" style="rounded=0;whiteSpace=wrap;html=1;" parent="1" vertex="1">
          <mxGeometry x="370" y="200" width="60" height="30" as="geometry"/>
        </mxCell>
        <mxCell id="MYA3_TibbV88ldz-a4rb-7" style="edgeStyle=orthogonalEdgeStyle;rounded=0;orthogonalLoop=1;jettySize=auto;html=1;exitX=1;exitY=0.5;exitDx=0;exitDy=0;entryX=0;entryY=0.5;entryDx=0;entryDy=0;" parent="1" source="MYA3_TibbV88ldz-a4rb-4" target="MYA3_TibbV88ldz-a4rb-3" edge="1">
          <mxGeometry relative="1" as="geometry"/>
        </mxCell>
        <mxCell id="MYA3_TibbV88ldz-a4rb-4" value="借阅" style="rhombus;whiteSpace=wrap;html=1;" parent="1" vertex="1">
          <mxGeometry x="307" y="195" width="40" height="40" as="geometry"/>
        </mxCell>
        <mxCell id="MYA3_TibbV88ldz-a4rb-12" style="edgeStyle=orthogonalEdgeStyle;rounded=0;orthogonalLoop=1;jettySize=auto;html=1;exitX=1;exitY=0.5;exitDx=0;exitDy=0;entryX=0;entryY=0.5;entryDx=0;entryDy=0;" parent="1" source="MYA3_TibbV88ldz-a4rb-8" target="MYA3_TibbV88ldz-a4rb-11" edge="1">
          <mxGeometry relative="1" as="geometry"/>
        </mxCell>
        <mxCell id="MYA3_TibbV88ldz-a4rb-8" value="归还" style="rhombus;whiteSpace=wrap;html=1;" parent="1" vertex="1">
          <mxGeometry x="307" y="260" width="40" height="40" as="geometry"/>
        </mxCell>
        <mxCell id="MYA3_TibbV88ldz-a4rb-11" value="图书" style="rounded=0;whiteSpace=wrap;html=1;" parent="1" vertex="1">
          <mxGeometry x="370" y="265" width="60" height="30" as="geometry"/>
        </mxCell>
        <mxCell id="MYA3_TibbV88ldz-a4rb-17" style="edgeStyle=orthogonalEdgeStyle;rounded=0;orthogonalLoop=1;jettySize=auto;html=1;exitX=1;exitY=0.5;exitDx=0;exitDy=0;" parent="1" source="MYA3_TibbV88ldz-a4rb-15" target="MYA3_TibbV88ldz-a4rb-16" edge="1">
          <mxGeometry relative="1" as="geometry"/>
        </mxCell>
        <mxCell id="MYA3_TibbV88ldz-a4rb-15" value="查询" style="rhombus;whiteSpace=wrap;html=1;" parent="1" vertex="1">
          <mxGeometry x="307" y="130" width="40" height="40" as="geometry"/>
        </mxCell>
        <mxCell id="MYA3_TibbV88ldz-a4rb-16" value="图书" style="rounded=0;whiteSpace=wrap;html=1;" parent="1" vertex="1">
          <mxGeometry x="370" y="135" width="60" height="30" as="geometry"/>
        </mxCell>
        <mxCell id="MYA3_TibbV88ldz-a4rb-22" style="edgeStyle=orthogonalEdgeStyle;rounded=0;orthogonalLoop=1;jettySize=auto;html=1;exitX=0.5;exitY=0;exitDx=0;exitDy=0;entryX=0.5;entryY=1;entryDx=0;entryDy=0;" parent="1" source="MYA3_TibbV88ldz-a4rb-19" target="MYA3_TibbV88ldz-a4rb-21" edge="1">
          <mxGeometry relative="1" as="geometry"/>
        </mxCell>
        <mxCell id="MYA3_TibbV88ldz-a4rb-19" value="登录" style="rhombus;whiteSpace=wrap;html=1;" parent="1" vertex="1">
          <mxGeometry x="170" y="135" width="40" height="40" as="geometry"/>
        </mxCell>
        <mxCell id="MYA3_TibbV88ldz-a4rb-21" value="账号" style="rounded=0;whiteSpace=wrap;html=1;" parent="1" vertex="1">
          <mxGeometry x="160" y="80" width="60" height="30" as="geometry"/>
        </mxCell>
        <mxCell id="MYA3_TibbV88ldz-a4rb-26" style="edgeStyle=orthogonalEdgeStyle;rounded=0;orthogonalLoop=1;jettySize=auto;html=1;exitX=0.5;exitY=1;exitDx=0;exitDy=0;entryX=0.5;entryY=0;entryDx=0;entryDy=0;" parent="1" source="MYA3_TibbV88ldz-a4rb-23" target="MYA3_TibbV88ldz-a4rb-25" edge="1">
          <mxGeometry relative="1" as="geometry"/>
        </mxCell>
        <mxCell id="MYA3_TibbV88ldz-a4rb-23" value="修改" style="rhombus;whiteSpace=wrap;html=1;" parent="1" vertex="1">
          <mxGeometry x="170" y="255" width="40" height="40" as="geometry"/>
        </mxCell>
        <mxCell id="MYA3_TibbV88ldz-a4rb-25" value="用户密码" style="rounded=0;whiteSpace=wrap;html=1;" parent="1" vertex="1">
          <mxGeometry x="160" y="320" width="60" height="30" as="geometry"/>
        </mxCell>
        <mxCell id="MYA3_TibbV88ldz-a4rb-27" value="账号" style="rounded=0;whiteSpace=wrap;html=1;" parent="1" vertex="1">
          <mxGeometry x="50" y="200" width="60" height="30" as="geometry"/>
        </mxCell>
        <mxCell id="MYA3_TibbV88ldz-a4rb-93" style="edgeStyle=orthogonalEdgeStyle;rounded=0;orthogonalLoop=1;jettySize=auto;html=1;exitX=0.5;exitY=0;exitDx=0;exitDy=0;entryX=0;entryY=0.5;entryDx=0;entryDy=0;" parent="1" source="MYA3_TibbV88ldz-a4rb-59" target="MYA3_TibbV88ldz-a4rb-15" edge="1">
          <mxGeometry relative="1" as="geometry"/>
        </mxCell>
        <mxCell id="MYA3_TibbV88ldz-a4rb-94" style="edgeStyle=orthogonalEdgeStyle;rounded=0;orthogonalLoop=1;jettySize=auto;html=1;exitX=0.5;exitY=1;exitDx=0;exitDy=0;entryX=0;entryY=0.5;entryDx=0;entryDy=0;" parent="1" source="MYA3_TibbV88ldz-a4rb-59" target="MYA3_TibbV88ldz-a4rb-8" edge="1">
          <mxGeometry relative="1" as="geometry"/>
        </mxCell>
        <mxCell id="MYA3_TibbV88ldz-a4rb-59" value="读者" style="rounded=0;whiteSpace=wrap;html=1;" parent="1" vertex="1">
          <mxGeometry x="210" y="200" width="60" height="30" as="geometry"/>
        </mxCell>
        <mxCell id="MYA3_TibbV88ldz-a4rb-33" style="edgeStyle=orthogonalEdgeStyle;rounded=0;orthogonalLoop=1;jettySize=auto;html=1;exitX=0;exitY=0.5;exitDx=0;exitDy=0;entryX=1;entryY=0.5;entryDx=0;entryDy=0;" parent="1" source="MYA3_TibbV88ldz-a4rb-30" target="MYA3_TibbV88ldz-a4rb-27" edge="1">
          <mxGeometry relative="1" as="geometry"/>
        </mxCell>
        <mxCell id="MYA3_TibbV88ldz-a4rb-30" value="注册" style="rhombus;whiteSpace=wrap;html=1;" parent="1" vertex="1">
          <mxGeometry x="130" y="195" width="40" height="40" as="geometry"/>
        </mxCell>
        <mxCell id="MYA3_TibbV88ldz-a4rb-34" style="edgeStyle=orthogonalEdgeStyle;rounded=0;orthogonalLoop=1;jettySize=auto;html=1;exitX=1;exitY=0.5;exitDx=0;exitDy=0;entryX=0;entryY=0.5;entryDx=0;entryDy=0;" parent="1" source="MYA3_TibbV88ldz-a4rb-40" target="MYA3_TibbV88ldz-a4rb-43" edge="1">
          <mxGeometry relative="1" as="geometry"/>
        </mxCell>
        <mxCell id="MYA3_TibbV88ldz-a4rb-35" style="edgeStyle=orthogonalEdgeStyle;rounded=0;orthogonalLoop=1;jettySize=auto;html=1;exitX=0.5;exitY=1;exitDx=0;exitDy=0;entryX=0;entryY=0.5;entryDx=0;entryDy=0;" parent="1" source="MYA3_TibbV88ldz-a4rb-40" target="MYA3_TibbV88ldz-a4rb-45" edge="1">
          <mxGeometry relative="1" as="geometry"/>
        </mxCell>
        <mxCell id="MYA3_TibbV88ldz-a4rb-36" style="edgeStyle=orthogonalEdgeStyle;rounded=0;orthogonalLoop=1;jettySize=auto;html=1;exitX=0.5;exitY=0;exitDx=0;exitDy=0;entryX=0;entryY=0.5;entryDx=0;entryDy=0;" parent="1" source="MYA3_TibbV88ldz-a4rb-40" target="MYA3_TibbV88ldz-a4rb-48" edge="1">
          <mxGeometry relative="1" as="geometry"/>
        </mxCell>
        <mxCell id="MYA3_TibbV88ldz-a4rb-37" style="edgeStyle=orthogonalEdgeStyle;rounded=0;orthogonalLoop=1;jettySize=auto;html=1;exitX=0;exitY=0.5;exitDx=0;exitDy=0;entryX=0.5;entryY=1;entryDx=0;entryDy=0;" parent="1" source="MYA3_TibbV88ldz-a4rb-40" target="MYA3_TibbV88ldz-a4rb-51" edge="1">
          <mxGeometry relative="1" as="geometry"/>
        </mxCell>
        <mxCell id="MYA3_TibbV88ldz-a4rb-38" style="edgeStyle=orthogonalEdgeStyle;rounded=0;orthogonalLoop=1;jettySize=auto;html=1;exitX=0;exitY=0.5;exitDx=0;exitDy=0;entryX=0.5;entryY=0;entryDx=0;entryDy=0;" parent="1" source="MYA3_TibbV88ldz-a4rb-40" target="MYA3_TibbV88ldz-a4rb-54" edge="1">
          <mxGeometry relative="1" as="geometry"/>
        </mxCell>
        <mxCell id="MYA3_TibbV88ldz-a4rb-148" style="edgeStyle=orthogonalEdgeStyle;rounded=0;orthogonalLoop=1;jettySize=auto;html=1;exitX=0;exitY=0.5;exitDx=0;exitDy=0;entryX=1;entryY=0.5;entryDx=0;entryDy=0;" parent="1" source="MYA3_TibbV88ldz-a4rb-40" target="MYA3_TibbV88ldz-a4rb-61" edge="1">
          <mxGeometry relative="1" as="geometry"/>
        </mxCell>
        <mxCell id="MYA3_TibbV88ldz-a4rb-156" style="edgeStyle=orthogonalEdgeStyle;rounded=0;orthogonalLoop=1;jettySize=auto;html=1;exitX=0.5;exitY=0;exitDx=0;exitDy=0;entryX=1;entryY=0.5;entryDx=0;entryDy=0;" parent="1" source="MYA3_TibbV88ldz-a4rb-40" target="MYA3_TibbV88ldz-a4rb-151" edge="1">
          <mxGeometry relative="1" as="geometry"/>
        </mxCell>
        <mxCell id="MYA3_TibbV88ldz-a4rb-40" value="管理员" style="rounded=0;whiteSpace=wrap;html=1;" parent="1" vertex="1">
          <mxGeometry x="720" y="200" width="60" height="30" as="geometry"/>
        </mxCell>
        <mxCell id="MYA3_TibbV88ldz-a4rb-41" value="图书信息" style="rounded=0;whiteSpace=wrap;html=1;" parent="1" vertex="1">
          <mxGeometry x="870" y="200" width="60" height="30" as="geometry"/>
        </mxCell>
        <mxCell id="MYA3_TibbV88ldz-a4rb-42" style="edgeStyle=orthogonalEdgeStyle;rounded=0;orthogonalLoop=1;jettySize=auto;html=1;exitX=1;exitY=0.5;exitDx=0;exitDy=0;entryX=0;entryY=0.5;entryDx=0;entryDy=0;" parent="1" source="MYA3_TibbV88ldz-a4rb-43" target="MYA3_TibbV88ldz-a4rb-41" edge="1">
          <mxGeometry relative="1" as="geometry"/>
        </mxCell>
        <mxCell id="MYA3_TibbV88ldz-a4rb-43" value="录入" style="rhombus;whiteSpace=wrap;html=1;" parent="1" vertex="1">
          <mxGeometry x="807" y="195" width="40" height="40" as="geometry"/>
        </mxCell>
        <mxCell id="MYA3_TibbV88ldz-a4rb-44" style="edgeStyle=orthogonalEdgeStyle;rounded=0;orthogonalLoop=1;jettySize=auto;html=1;exitX=1;exitY=0.5;exitDx=0;exitDy=0;entryX=0;entryY=0.5;entryDx=0;entryDy=0;" parent="1" source="MYA3_TibbV88ldz-a4rb-45" target="MYA3_TibbV88ldz-a4rb-46" edge="1">
          <mxGeometry relative="1" as="geometry"/>
        </mxCell>
        <mxCell id="MYA3_TibbV88ldz-a4rb-45" value="修改" style="rhombus;whiteSpace=wrap;html=1;" parent="1" vertex="1">
          <mxGeometry x="807" y="260" width="40" height="40" as="geometry"/>
        </mxCell>
        <mxCell id="MYA3_TibbV88ldz-a4rb-46" value="借阅记录" style="rounded=0;whiteSpace=wrap;html=1;" parent="1" vertex="1">
          <mxGeometry x="870" y="265" width="60" height="30" as="geometry"/>
        </mxCell>
        <mxCell id="MYA3_TibbV88ldz-a4rb-47" style="edgeStyle=orthogonalEdgeStyle;rounded=0;orthogonalLoop=1;jettySize=auto;html=1;exitX=1;exitY=0.5;exitDx=0;exitDy=0;" parent="1" source="MYA3_TibbV88ldz-a4rb-48" target="MYA3_TibbV88ldz-a4rb-49" edge="1">
          <mxGeometry relative="1" as="geometry"/>
        </mxCell>
        <mxCell id="MYA3_TibbV88ldz-a4rb-48" value="修改" style="rhombus;whiteSpace=wrap;html=1;" parent="1" vertex="1">
          <mxGeometry x="807" y="130" width="40" height="40" as="geometry"/>
        </mxCell>
        <mxCell id="MYA3_TibbV88ldz-a4rb-49" value="图书信息" style="rounded=0;whiteSpace=wrap;html=1;" parent="1" vertex="1">
          <mxGeometry x="870" y="135" width="60" height="30" as="geometry"/>
        </mxCell>
        <mxCell id="MYA3_TibbV88ldz-a4rb-50" style="edgeStyle=orthogonalEdgeStyle;rounded=0;orthogonalLoop=1;jettySize=auto;html=1;exitX=0.5;exitY=0;exitDx=0;exitDy=0;entryX=0.5;entryY=1;entryDx=0;entryDy=0;" parent="1" source="MYA3_TibbV88ldz-a4rb-51" target="MYA3_TibbV88ldz-a4rb-52" edge="1">
          <mxGeometry relative="1" as="geometry"/>
        </mxCell>
        <mxCell id="MYA3_TibbV88ldz-a4rb-51" value="登录" style="rhombus;whiteSpace=wrap;html=1;" parent="1" vertex="1">
          <mxGeometry x="670" y="135" width="40" height="40" as="geometry"/>
        </mxCell>
        <mxCell id="MYA3_TibbV88ldz-a4rb-52" value="账号" style="rounded=0;whiteSpace=wrap;html=1;" parent="1" vertex="1">
          <mxGeometry x="660" y="80" width="60" height="30" as="geometry"/>
        </mxCell>
        <mxCell id="MYA3_TibbV88ldz-a4rb-159" style="edgeStyle=orthogonalEdgeStyle;rounded=0;orthogonalLoop=1;jettySize=auto;html=1;exitX=0.5;exitY=1;exitDx=0;exitDy=0;entryX=1;entryY=0.5;entryDx=0;entryDy=0;" parent="1" source="MYA3_TibbV88ldz-a4rb-54" target="MYA3_TibbV88ldz-a4rb-25" edge="1">
          <mxGeometry relative="1" as="geometry"/>
        </mxCell>
        <mxCell id="MYA3_TibbV88ldz-a4rb-54" value="修改" style="rhombus;whiteSpace=wrap;html=1;" parent="1" vertex="1">
          <mxGeometry x="670" y="255" width="40" height="40" as="geometry"/>
        </mxCell>
        <mxCell id="MYA3_TibbV88ldz-a4rb-64" style="edgeStyle=orthogonalEdgeStyle;rounded=0;orthogonalLoop=1;jettySize=auto;html=1;exitX=0;exitY=0.5;exitDx=0;exitDy=0;entryX=1;entryY=0.5;entryDx=0;entryDy=0;" parent="1" source="MYA3_TibbV88ldz-a4rb-61" target="MYA3_TibbV88ldz-a4rb-62" edge="1">
          <mxGeometry relative="1" as="geometry"/>
        </mxCell>
        <mxCell id="MYA3_TibbV88ldz-a4rb-61" value="修改" style="rhombus;whiteSpace=wrap;html=1;" parent="1" vertex="1">
          <mxGeometry x="620" y="195" width="40" height="40" as="geometry"/>
        </mxCell>
        <mxCell id="MYA3_TibbV88ldz-a4rb-62" value="用户信息" style="rounded=0;whiteSpace=wrap;html=1;" parent="1" vertex="1">
          <mxGeometry x="540" y="200" width="60" height="30" as="geometry"/>
        </mxCell>
        <mxCell id="MYA3_TibbV88ldz-a4rb-96" style="edgeStyle=orthogonalEdgeStyle;rounded=0;orthogonalLoop=1;jettySize=auto;html=1;exitX=0;exitY=0.5;exitDx=0;exitDy=0;entryX=1;entryY=0.5;entryDx=0;entryDy=0;" parent="1" source="MYA3_TibbV88ldz-a4rb-89" target="MYA3_TibbV88ldz-a4rb-91" edge="1">
          <mxGeometry relative="1" as="geometry"/>
        </mxCell>
        <mxCell id="MYA3_TibbV88ldz-a4rb-171" style="edgeStyle=orthogonalEdgeStyle;rounded=0;orthogonalLoop=1;jettySize=auto;html=1;exitX=1;exitY=0.5;exitDx=0;exitDy=0;entryX=0.5;entryY=0;entryDx=0;entryDy=0;" parent="1" source="MYA3_TibbV88ldz-a4rb-89" target="MYA3_TibbV88ldz-a4rb-166" edge="1">
          <mxGeometry relative="1" as="geometry"/>
        </mxCell>
        <mxCell id="MYA3_TibbV88ldz-a4rb-89" value="游客" style="rounded=0;whiteSpace=wrap;html=1;" parent="1" vertex="1">
          <mxGeometry x="230" y="-45" width="60" height="30" as="geometry"/>
        </mxCell>
        <mxCell id="MYA3_TibbV88ldz-a4rb-165" style="edgeStyle=orthogonalEdgeStyle;rounded=0;orthogonalLoop=1;jettySize=auto;html=1;exitX=0;exitY=0.5;exitDx=0;exitDy=0;entryX=0.5;entryY=0;entryDx=0;entryDy=0;" parent="1" source="MYA3_TibbV88ldz-a4rb-91" target="MYA3_TibbV88ldz-a4rb-27" edge="1">
          <mxGeometry relative="1" as="geometry"/>
        </mxCell>
        <mxCell id="MYA3_TibbV88ldz-a4rb-91" value="注册" style="rhombus;whiteSpace=wrap;html=1;" parent="1" vertex="1">
          <mxGeometry x="150" y="-50" width="40" height="40" as="geometry"/>
        </mxCell>
        <mxCell id="MYA3_TibbV88ldz-a4rb-101" value="1" style="text;html=1;strokeColor=none;fillColor=none;align=center;verticalAlign=middle;whiteSpace=wrap;rounded=0;" parent="1" vertex="1">
          <mxGeometry x="100" y="190" width="40" height="20" as="geometry"/>
        </mxCell>
        <mxCell id="MYA3_TibbV88ldz-a4rb-104" value="1" style="text;html=1;strokeColor=none;fillColor=none;align=center;verticalAlign=middle;whiteSpace=wrap;rounded=0;" parent="1" vertex="1">
          <mxGeometry x="270" y="190" width="40" height="20" as="geometry"/>
        </mxCell>
        <mxCell id="MYA3_TibbV88ldz-a4rb-105" value="1" style="text;html=1;strokeColor=none;fillColor=none;align=center;verticalAlign=middle;whiteSpace=wrap;rounded=0;" parent="1" vertex="1">
          <mxGeometry x="340" y="190" width="40" height="20" as="geometry"/>
        </mxCell>
        <mxCell id="MYA3_TibbV88ldz-a4rb-106" value="1" style="text;html=1;strokeColor=none;fillColor=none;align=center;verticalAlign=middle;whiteSpace=wrap;rounded=0;" parent="1" vertex="1">
          <mxGeometry x="250" y="255" width="40" height="20" as="geometry"/>
        </mxCell>
        <mxCell id="MYA3_TibbV88ldz-a4rb-107" value="1" style="text;html=1;strokeColor=none;fillColor=none;align=center;verticalAlign=middle;whiteSpace=wrap;rounded=0;" parent="1" vertex="1">
          <mxGeometry x="340" y="255" width="40" height="20" as="geometry"/>
        </mxCell>
        <mxCell id="MYA3_TibbV88ldz-a4rb-108" value="1" style="text;html=1;strokeColor=none;fillColor=none;align=center;verticalAlign=middle;whiteSpace=wrap;rounded=0;" parent="1" vertex="1">
          <mxGeometry x="250" y="120" width="40" height="20" as="geometry"/>
        </mxCell>
        <mxCell id="MYA3_TibbV88ldz-a4rb-109" value="m" style="text;html=1;strokeColor=none;fillColor=none;align=center;verticalAlign=middle;whiteSpace=wrap;rounded=0;" parent="1" vertex="1">
          <mxGeometry x="340" y="115" width="40" height="20" as="geometry"/>
        </mxCell>
        <mxCell id="MYA3_TibbV88ldz-a4rb-113" value="1" style="text;html=1;strokeColor=none;fillColor=none;align=center;verticalAlign=middle;whiteSpace=wrap;rounded=0;" parent="1" vertex="1">
          <mxGeometry x="140" y="170" width="40" height="20" as="geometry"/>
        </mxCell>
        <mxCell id="MYA3_TibbV88ldz-a4rb-114" value="1" style="text;html=1;strokeColor=none;fillColor=none;align=center;verticalAlign=middle;whiteSpace=wrap;rounded=0;" parent="1" vertex="1">
          <mxGeometry x="140" y="115" width="40" height="20" as="geometry"/>
        </mxCell>
        <mxCell id="MYA3_TibbV88ldz-a4rb-115" value="1" style="text;html=1;strokeColor=none;fillColor=none;align=center;verticalAlign=middle;whiteSpace=wrap;rounded=0;" parent="1" vertex="1">
          <mxGeometry x="140" y="240" width="40" height="20" as="geometry"/>
        </mxCell>
        <mxCell id="MYA3_TibbV88ldz-a4rb-116" value="1" style="text;html=1;strokeColor=none;fillColor=none;align=center;verticalAlign=middle;whiteSpace=wrap;rounded=0;" parent="1" vertex="1">
          <mxGeometry x="140" y="295" width="40" height="20" as="geometry"/>
        </mxCell>
        <mxCell id="MYA3_TibbV88ldz-a4rb-117" value="1" style="text;html=1;strokeColor=none;fillColor=none;align=center;verticalAlign=middle;whiteSpace=wrap;rounded=0;" parent="1" vertex="1">
          <mxGeometry x="150" y="190" width="40" height="20" as="geometry"/>
        </mxCell>
        <mxCell id="MYA3_TibbV88ldz-a4rb-118" value="1" style="text;html=1;strokeColor=none;fillColor=none;align=center;verticalAlign=middle;whiteSpace=wrap;rounded=0;" parent="1" vertex="1">
          <mxGeometry x="750" y="120" width="40" height="20" as="geometry"/>
        </mxCell>
        <mxCell id="MYA3_TibbV88ldz-a4rb-120" value="m" style="text;html=1;strokeColor=none;fillColor=none;align=center;verticalAlign=middle;whiteSpace=wrap;rounded=0;" parent="1" vertex="1">
          <mxGeometry x="830" y="120" width="40" height="20" as="geometry"/>
        </mxCell>
        <mxCell id="MYA3_TibbV88ldz-a4rb-121" value="1" style="text;html=1;strokeColor=none;fillColor=none;align=center;verticalAlign=middle;whiteSpace=wrap;rounded=0;" parent="1" vertex="1">
          <mxGeometry x="780" y="190" width="33" height="20" as="geometry"/>
        </mxCell>
        <mxCell id="MYA3_TibbV88ldz-a4rb-122" value="1" style="text;html=1;strokeColor=none;fillColor=none;align=center;verticalAlign=middle;whiteSpace=wrap;rounded=0;" parent="1" vertex="1">
          <mxGeometry x="840" y="190" width="40" height="20" as="geometry"/>
        </mxCell>
        <mxCell id="MYA3_TibbV88ldz-a4rb-123" value="1" style="text;html=1;strokeColor=none;fillColor=none;align=center;verticalAlign=middle;whiteSpace=wrap;rounded=0;" parent="1" vertex="1">
          <mxGeometry x="760" y="290" width="40" height="20" as="geometry"/>
        </mxCell>
        <mxCell id="MYA3_TibbV88ldz-a4rb-124" value="m" style="text;html=1;strokeColor=none;fillColor=none;align=center;verticalAlign=middle;whiteSpace=wrap;rounded=0;" parent="1" vertex="1">
          <mxGeometry x="830" y="295" width="40" height="20" as="geometry"/>
        </mxCell>
        <mxCell id="MYA3_TibbV88ldz-a4rb-125" value="1" style="text;html=1;strokeColor=none;fillColor=none;align=center;verticalAlign=middle;whiteSpace=wrap;rounded=0;" parent="1" vertex="1">
          <mxGeometry x="650" y="240" width="40" height="20" as="geometry"/>
        </mxCell>
        <mxCell id="MYA3_TibbV88ldz-a4rb-127" value="1" style="text;html=1;strokeColor=none;fillColor=none;align=center;verticalAlign=middle;whiteSpace=wrap;rounded=0;" parent="1" vertex="1">
          <mxGeometry x="650" y="180" width="40" height="20" as="geometry"/>
        </mxCell>
        <mxCell id="MYA3_TibbV88ldz-a4rb-128" value="1" style="text;html=1;strokeColor=none;fillColor=none;align=center;verticalAlign=middle;whiteSpace=wrap;rounded=0;" parent="1" vertex="1">
          <mxGeometry x="650" y="120" width="40" height="20" as="geometry"/>
        </mxCell>
        <mxCell id="MYA3_TibbV88ldz-a4rb-129" value="m" style="text;html=1;strokeColor=none;fillColor=none;align=center;verticalAlign=middle;whiteSpace=wrap;rounded=0;" parent="1" vertex="1">
          <mxGeometry x="587" y="180" width="40" height="20" as="geometry"/>
        </mxCell>
        <mxCell id="MYA3_TibbV88ldz-a4rb-130" value="1" style="text;html=1;strokeColor=none;fillColor=none;align=center;verticalAlign=middle;whiteSpace=wrap;rounded=0;" parent="1" vertex="1">
          <mxGeometry x="650" y="220" width="40" height="20" as="geometry"/>
        </mxCell>
        <mxCell id="MYA3_TibbV88ldz-a4rb-131" value="1" style="text;html=1;strokeColor=none;fillColor=none;align=center;verticalAlign=middle;whiteSpace=wrap;rounded=0;" parent="1" vertex="1">
          <mxGeometry x="190" y="-50" width="40" height="20" as="geometry"/>
        </mxCell>
        <mxCell id="MYA3_TibbV88ldz-a4rb-132" value="1" style="text;html=1;strokeColor=none;fillColor=none;align=center;verticalAlign=middle;whiteSpace=wrap;rounded=0;" parent="1" vertex="1">
          <mxGeometry x="100" y="-50" width="40" height="20" as="geometry"/>
        </mxCell>
        <mxCell id="MYA3_TibbV88ldz-a4rb-133" value="1" style="text;html=1;strokeColor=none;fillColor=none;align=center;verticalAlign=middle;whiteSpace=wrap;rounded=0;" parent="1" vertex="1">
          <mxGeometry x="300" y="-60" width="40" height="20" as="geometry"/>
        </mxCell>
        <mxCell id="MYA3_TibbV88ldz-a4rb-134" value="m" style="text;html=1;strokeColor=none;fillColor=none;align=center;verticalAlign=middle;whiteSpace=wrap;rounded=0;" parent="1" vertex="1">
          <mxGeometry x="290" y="70" width="40" height="20" as="geometry"/>
        </mxCell>
        <mxCell id="MYA3_TibbV88ldz-a4rb-154" style="edgeStyle=orthogonalEdgeStyle;rounded=0;orthogonalLoop=1;jettySize=auto;html=1;exitX=0;exitY=0.5;exitDx=0;exitDy=0;" parent="1" source="MYA3_TibbV88ldz-a4rb-151" target="MYA3_TibbV88ldz-a4rb-16" edge="1">
          <mxGeometry relative="1" as="geometry"/>
        </mxCell>
        <mxCell id="MYA3_TibbV88ldz-a4rb-151" value="查询" style="rhombus;whiteSpace=wrap;html=1;" parent="1" vertex="1">
          <mxGeometry x="530" y="30" width="40" height="40" as="geometry"/>
        </mxCell>
        <mxCell id="MYA3_TibbV88ldz-a4rb-157" value="1" style="text;html=1;strokeColor=none;fillColor=none;align=center;verticalAlign=middle;whiteSpace=wrap;rounded=0;" parent="1" vertex="1">
          <mxGeometry x="630" y="20" width="40" height="20" as="geometry"/>
        </mxCell>
        <mxCell id="MYA3_TibbV88ldz-a4rb-158" value="m" style="text;html=1;strokeColor=none;fillColor=none;align=center;verticalAlign=middle;whiteSpace=wrap;rounded=0;" parent="1" vertex="1">
          <mxGeometry x="440" y="20" width="40" height="20" as="geometry"/>
        </mxCell>
        <mxCell id="MYA3_TibbV88ldz-a4rb-160" value="m" style="text;html=1;strokeColor=none;fillColor=none;align=center;verticalAlign=middle;whiteSpace=wrap;rounded=0;" parent="1" vertex="1">
          <mxGeometry x="410" y="310" width="40" height="20" as="geometry"/>
        </mxCell>
        <mxCell id="MYA3_TibbV88ldz-a4rb-172" style="edgeStyle=orthogonalEdgeStyle;rounded=0;orthogonalLoop=1;jettySize=auto;html=1;exitX=0.5;exitY=1;exitDx=0;exitDy=0;" parent="1" source="MYA3_TibbV88ldz-a4rb-166" target="MYA3_TibbV88ldz-a4rb-15" edge="1">
          <mxGeometry relative="1" as="geometry"/>
        </mxCell>
        <mxCell id="MYA3_TibbV88ldz-a4rb-166" value="查询" style="rhombus;whiteSpace=wrap;html=1;" parent="1" vertex="1">
          <mxGeometry x="307" y="10" width="40" height="40" as="geometry"/>
        </mxCell>
      </root>
    </mxGraphModel>
  </diagram>
</mxfile>
